<?xml version="1.0" encoding="utf-8"?>
<svg version="1.1" id="svg14712" xmlns:svg="http://www.w3.org/2000/svg"
	 xmlns="http://www.w3.org/2000/svg" x="0px" y="0px" viewBox="0 0 200 51"
	 style="enable-background:new 0 0 200 51;" xml:space="preserve">
<style type="text/css">
	.st0{fill:#003087;}
	.st1{fill:#002F86;}
	.st2{fill:#009CDE;}
	.st3{fill:#012069;}
</style>
<path id="path14499" class="st0" d="M36.6,3.8C34.3,1.2,30,0,24.6,0H8.8C7.7,0,6.8,0.8,6.6,1.9L0,43.8c-0.1,0.8,0.5,1.6,1.3,1.6h9.7
	l2.4-15.6l-0.1,0.5c0.2-1.1,1.1-1.9,2.2-1.9h4.6c9.1,0,16.2-3.7,18.3-14.4c0.1-0.3,0.1-0.6,0.2-0.9c-0.3-0.1-0.3-0.1,0,0
	C39.4,9,38.7,6.3,36.6,3.8"/>
<path id="path14519" class="st1" d="M137.2,23.6h-5.2c-0.5,0-1,0.2-1.3,0.7L123.4,35l-3.1-10.3c-0.2-0.6-0.8-1.1-1.4-1.1h-5.1
	c-0.6,0-1.1,0.6-0.9,1.2l5.8,17l-5.4,7.7c-0.4,0.6,0,1.4,0.7,1.4h5.2c0.5,0,1-0.2,1.2-0.7l17.4-25.3
	C138.3,24.5,137.9,23.6,137.2,23.6 M102.1,33.8c-0.5,3-2.9,5-5.9,5c-1.5,0-2.7-0.5-3.5-1.4c-0.8-0.9-1.1-2.2-0.8-3.7
	c0.5-3,2.9-5,5.8-5c1.5,0,2.7,0.5,3.5,1.4C102.1,31.1,102.4,32.4,102.1,33.8 M109.4,23.6h-5.2c-0.4,0-0.8,0.3-0.9,0.8l-0.2,1.5
	l-0.4-0.5c-1.1-1.6-3.6-2.2-6.2-2.2c-5.8,0-10.7,4.4-11.6,10.5c-0.5,3.1,0.2,6,1.9,8c1.6,1.9,3.9,2.7,6.6,2.7c4.6,0,7.2-3,7.2-3
	l-0.2,1.5c-0.1,0.6,0.3,1.1,0.9,1.1h4.7c0.7,0,1.4-0.5,1.5-1.3l2.8-17.9C110.4,24.1,110,23.6,109.4,23.6 M78.1,23.8
	c-0.6,3.9-3.6,3.9-6.5,3.9H70l1.2-7.3c0.1-0.4,0.4-0.8,0.9-0.8h0.8c2,0,3.8,0,4.8,1.1C78.2,21.4,78.3,22.4,78.1,23.8 M76.9,13.5H66
	c-0.7,0-1.4,0.5-1.5,1.3l-4.4,28.1c-0.1,0.6,0.3,1.1,0.9,1.1h5.2c0.7,0,1.4-0.5,1.5-1.3l1.2-7.6c0.1-0.7,0.7-1.3,1.5-1.3h3.4
	c7.2,0,11.3-3.5,12.4-10.4c0.5-3,0-5.4-1.4-7.1C83.3,14.5,80.5,13.5,76.9,13.5"/>
<path id="path14523" class="st2" d="M193.2,14.3l-4.5,28.6c-0.1,0.6,0.3,1.1,0.9,1.1h4.5c0.7,0,1.4-0.5,1.5-1.3l4.4-28.1
	c0.1-0.6-0.3-1.1-0.9-1.1h-5C193.6,13.5,193.2,13.8,193.2,14.3 M179.8,33.8c-0.5,3-2.9,5-5.9,5c-1.5,0-2.7-0.5-3.5-1.4
	c-0.8-0.9-1.1-2.2-0.8-3.7c0.5-3,2.9-5,5.8-5c1.5,0,2.7,0.5,3.5,1.4C179.7,31.1,180,32.4,179.8,33.8 M187,23.6h-5.2
	c-0.4,0-0.8,0.3-0.9,0.8l-0.2,1.5l-0.4-0.5c-1.1-1.6-3.6-2.2-6.2-2.2c-5.8,0-10.7,4.4-11.6,10.5c-0.5,3.1,0.2,6,1.9,8
	c1.6,1.9,3.9,2.7,6.6,2.7c4.6,0,7.2-3,7.2-3l-0.2,1.5c-0.1,0.6,0.3,1.1,0.9,1.1h4.7c0.7,0,1.4-0.5,1.5-1.3l2.8-17.9
	C188,24.1,187.6,23.6,187,23.6 M155.8,23.8c-0.6,3.9-3.6,3.9-6.5,3.9h-1.6l1.2-7.3c0.1-0.4,0.4-0.8,0.9-0.8h0.8c2,0,3.8,0,4.8,1.1
	C155.8,21.4,156,22.4,155.8,23.8 M154.5,13.5h-10.9c-0.7,0-1.4,0.5-1.5,1.3l-4.4,28.1c-0.1,0.6,0.3,1.1,0.9,1.1h5.6
	c0.5,0,1-0.4,1-0.9l1.2-8c0.1-0.7,0.7-1.3,1.5-1.3h3.4c7.2,0,11.3-3.5,12.4-10.4c0.5-3,0-5.4-1.4-7.1
	C160.9,14.5,158.1,13.5,154.5,13.5"/>
<path id="path14527" class="st0" d="M36.6,3.8C34.3,1.2,30,0,24.6,0H8.8C7.7,0,6.8,0.8,6.6,1.9L0,43.8c-0.1,0.8,0.5,1.6,1.3,1.6h9.7
	l2.4-15.6l-0.1,0.5c0.2-1.1,1.1-1.9,2.2-1.9h4.6c9.1,0,16.2-3.7,18.3-14.4c0.1-0.3,0.1-0.6,0.2-0.9c-0.3-0.1-0.3-0.1,0,0
	C39.4,9,38.7,6.3,36.6,3.8"/>
<path id="path14531" class="st1" d="M16.2,13c0.1-0.7,0.5-1.2,1.1-1.5c0.3-0.1,0.5-0.2,0.9-0.2h12.4c1.5,0,2.8,0.1,4.1,0.3
	c0.4,0.1,0.7,0.1,1,0.2c0.3,0.1,0.7,0.2,1,0.3c0.2,0,0.3,0.1,0.5,0.1c0.6,0.2,1.2,0.4,1.7,0.7c0.6-4,0-6.7-2.1-9.1
	C34.3,1.2,30,0,24.6,0H8.8C7.7,0,6.8,0.8,6.6,1.9L0,43.8c-0.1,0.8,0.5,1.6,1.3,1.6h9.7l2.4-15.6L16.2,13L16.2,13z"/>
<path id="path14535" class="st2" d="M38.7,13L38.7,13c0,0.3-0.1,0.6-0.2,0.9c-2.1,10.7-9.2,14.4-18.3,14.4h-4.6
	c-1.1,0-2,0.8-2.2,1.9l-2.4,15.1l-0.7,4.3c-0.1,0.7,0.4,1.4,1.2,1.4h8.2c1,0,1.8-0.7,1.9-1.7l0.1-0.4l1.5-9.9l0.1-0.5
	c0.2-1,1-1.7,1.9-1.7h1.2c7.9,0,14.2-3.2,16-12.6c0.8-3.9,0.4-7.2-1.6-9.5C40.4,14,39.6,13.4,38.7,13"/>
<path id="path14539" class="st3" d="M36.6,12.1c-0.3-0.1-0.6-0.2-1-0.3c-0.3-0.1-0.7-0.1-1-0.2c-1.2-0.2-2.6-0.3-4.1-0.3H18.1
	c-0.3,0-0.6,0.1-0.9,0.2c-0.6,0.3-1,0.8-1.1,1.5l-2.6,16.7l-0.1,0.5c0.2-1.1,1.1-1.9,2.2-1.9h4.6c9.1,0,16.2-3.7,18.3-14.4
	c0.1-0.3,0.1-0.6,0.2-0.9c-0.5-0.3-1.1-0.5-1.7-0.7C36.9,12.2,36.7,12.1,36.6,12.1"/>
</svg>
