<?xml version="1.0" encoding="utf-8"?>
<svg version="1.1" xmlns="http://www.w3.org/2000/svg" x="0px" y="0px"
	 viewBox="0 0 512 512" style="enable-background:new 0 0 512 512;" xml:space="preserve">
<style type="text/css">
	.st0{fill:url(#SVGID_1_);}
	.st1{fill:#FFFFFF;}
</style>
<linearGradient id="SVGID_1_" gradientUnits="userSpaceOnUse" x1="256" y1="0" x2="256" y2="512">
	<stop  offset="0" style="stop-color:#5592B2"/>
	<stop  offset="1" style="stop-color:#43748D"/>
</linearGradient>
<rect class="st0" width="512" height="512"/>
<path class="st1" d="M418,340.6l-64.1-65.2c3.2-1.4,6.4-2.9,9.5-4.5c13.2-6.9,24.3-16.3,33.2-28c10.3-13.6,15.5-30.4,15.5-49.7
	c0-7.2-0.7-15-2-23.2c-1.6-9.8-4.7-19.1-9.1-27.6c-5.3-10.2-12.8-18.7-22.2-25.3c-10.7-7.5-23.6-11.3-38.5-11.3H185.8
	c-16.1,0-30.5,10.1-36,25.3L85.3,308.5c-4.3,11.8-2.6,24.9,4.6,35.2c7.2,10.3,18.9,16.4,31.4,16.4h56.4c16.1,0,30.6-10.1,36.1-25.3
	l6.7-18.5l83,79.2c7.1,6.8,16.6,10.6,26.5,10.6h60.6c15.5,0,29.4-9.3,35.4-23.6C432,368.1,428.8,351.7,418,340.6z M330,367.6
	L212.7,255.7l-3.2-3l6.8-6.9l29.6-30h54.5c5.6,0,10.1-2.8,12.6-7.9c1.9-4,2.8-7.5,2.8-10.7v-3.9c0-2.8-0.6-5.3-1.7-7.4
	c-1.7-3.2-5.1-4.8-10.1-4.8h-71.3h-3.8l-1.3,3.6L207.3,240l-8.6,23.6l0.1-0.1l-21,58.1h-56.4l64.5-177.3h154.3
	c6.9,0,12.4,1.5,16.5,4.3c4.3,3,7.7,6.9,10.2,11.5c2.6,4.9,4.3,10.3,5.3,16.1c1,6.1,1.5,11.7,1.5,16.9c0,10.8-2.6,19.7-7.8,26.5
	c-5.4,7.1-12.2,12.9-20.3,17.1c-8.3,4.3-17.7,7.5-27.9,9.4c-10.5,2-20.5,3.3-29.7,4l-11.8,0.9l8.3,8.4l106.2,108H330z"/>
</svg>
