<?xml version="1.0" encoding="utf-8"?>
<svg version="1.1" xmlns="http://www.w3.org/2000/svg" xmlns:xlink="http://www.w3.org/1999/xlink" x="0px" y="0px" width="64px"
	 height="64px" viewBox="0 0 64 64" style="enable-background:new 0 0 64 64;" xml:space="preserve">
<path fill="#FFFFFF" d="M3.7,0C1.7,0,0,1.7,0,3.7v56.6c0,2,1.7,3.7,3.7,3.7h56.6c2,0,3.7-1.7,3.7-3.7V3.7c0-2-1.7-3.7-3.7-3.7H3.7z M3.7,2.5h56.6
	c0.7,0,1.2,0.6,1.2,1.2v56.6c0,0.7-0.6,1.2-1.2,1.2H3.7c-0.7,0-1.2-0.6-1.2-1.2V3.7C2.5,3,3,2.5,3.7,2.5z M9.8,7.4
	c-1.4,0-2.5,1.1-2.5,2.5v9.8c0,1.4,1.1,2.5,2.5,2.5h9.8c1.4,0,2.5-1.1,2.5-2.5V9.8c0-1.4-1.1-2.5-2.5-2.5H9.8z M25.8,7.4
	c-0.7,0-1.2,0.6-1.2,1.2v4.9c0,0.7,0.6,1.2,1.2,1.2h3.7v3.7c0,0.7,0.6,1.2,1.2,1.2c0.7,0,1.2-0.6,1.2-1.2v-3.7h4.9v4.9h-3.7
	c-0.7,0-1.2,0.6-1.2,1.2v3.7h-6.2c-0.7,0-1.2,0.6-1.2,1.2V32h-2.5v-3.7c0-0.7-0.6-1.2-1.2-1.2H16c-0.7,0-1.2,0.6-1.2,1.2v4.9
	c0,0.7,0.6,1.2,1.2,1.2h4.9h3.7v3.7c0,0.7,0.6,1.2,1.2,1.2H32v2.5h-3.7c-0.7,0-1.2,0.6-1.2,1.2V48c0,0.7,0.6,1.2,1.2,1.2h4.9
	c0.7,0,1.2-0.6,1.2-1.2v-2.5v-2.5v-4.9c0-0.7-0.6-1.2-1.2-1.2h-6.2v-2.5h9.8v8.6v2.5V48c0,0.7,0.6,1.2,1.2,1.2h4.9
	c0.7,0,1.2-0.6,1.2-1.2v-3.7h4.9v6.2v4.9c0,0.7,0.6,1.2,1.2,1.2h4.9c0.7,0,1.2-0.6,1.2-1.2v-4.9c0-0.7-0.6-1.2-1.2-1.2h-3.7v-6.2
	c0-0.7-0.6-1.2-1.2-1.2h-6.2v-2.5h6.2h4.9c0.7,0,1.2-0.6,1.2-1.2v-2.5v-2.5v-7.4c0-0.7-0.6-1.2-1.2-1.2H48c-0.7,0-1.2,0.6-1.2,1.2
	c0,0.7,0.6,1.2,1.2,1.2h6.2V32h-3.7c-0.7,0-1.2,0.6-1.2,1.2v3.7h-6.2c-0.7,0-1.2,0.6-1.2,1.2v3.7h-2.5v-7.4h3.7
	c0.7,0,1.2-0.6,1.2-1.2v-4.9c0-0.7-0.6-1.2-1.2-1.2h-4.9c-0.7,0-1.2,0.6-1.2,1.2V32h-9.8v-4.9h6.2c0.7,0,1.2-0.6,1.2-1.2v-3.7h3.7
	c0.7,0,1.2-0.6,1.2-1.2v-7.4c0-0.7-0.6-1.2-1.2-1.2H32V8.6c0-0.7-0.6-1.2-1.2-1.2H25.8z M35.7,7.4c-0.7,0-1.2,0.6-1.2,1.2
	c0,0.7,0.6,1.2,1.2,1.2h2.5c0.7,0,1.2-0.6,1.2-1.2c0-0.7-0.6-1.2-1.2-1.2H35.7z M44.3,7.4c-1.4,0-2.5,1.1-2.5,2.5v9.8
	c0,1.4,1.1,2.5,2.5,2.5h9.8c1.4,0,2.5-1.1,2.5-2.5V9.8c0-1.4-1.1-2.5-2.5-2.5H44.3z M9.8,9.8h9.8l0,9.8H9.8V9.8z M27.1,9.8h2.5v2.5
	h-2.5V9.8z M44.3,9.8h9.8l0,9.8h-9.8V9.8z M13.5,12.3c-0.7,0-1.2,0.6-1.2,1.2V16c0,0.7,0.6,1.2,1.2,1.2H16c0.7,0,1.2-0.6,1.2-1.2
	v-2.5c0-0.7-0.6-1.2-1.2-1.2H13.5z M48,12.3c-0.7,0-1.2,0.6-1.2,1.2V16c0,0.7,0.6,1.2,1.2,1.2h2.5c0.7,0,1.2-0.6,1.2-1.2v-2.5
	c0-0.7-0.6-1.2-1.2-1.2H48z M25.8,17.2c-0.7,0-1.2,0.6-1.2,1.2v2.5c0,0.7,0.6,1.2,1.2,1.2s1.2-0.6,1.2-1.2v-2.5
	C27.1,17.8,26.5,17.2,25.8,17.2z M8.6,24.6c-0.7,0-1.2,0.6-1.2,1.2c0,0.7,0.6,1.2,1.2,1.2h2.5c0.7,0,1.2-0.6,1.2-1.2
	c0-0.7-0.6-1.2-1.2-1.2H8.6z M17.2,29.5h2.5V32h-2.5V29.5z M39.4,29.5h2.5V32h-2.5V29.5z M8.6,30.8c-0.7,0-1.2,0.6-1.2,1.2
	c0,0.7,0.6,1.2,1.2,1.2h2.5c0.7,0,1.2-0.6,1.2-1.2c0-0.7-0.6-1.2-1.2-1.2H8.6z M51.7,34.5h2.5v1.2v1.2h-2.5V34.5z M8.6,36.9
	c-0.7,0-1.2,0.6-1.2,1.2s0.6,1.2,1.2,1.2h2.5c0.7,0,1.2-0.6,1.2-1.2s-0.6-1.2-1.2-1.2H8.6z M16,36.9c-0.7,0-1.2,0.6-1.2,1.2
	s0.6,1.2,1.2,1.2h4.9c0.7,0,1.2-0.6,1.2-1.2s-0.6-1.2-1.2-1.2H16z M9.8,41.8c-1.4,0-2.5,1.1-2.5,2.5v9.8c0,1.4,1.1,2.5,2.5,2.5h9.8
	c1.4,0,2.5-1.1,2.5-2.5v-9.8c0-1.4-1.1-2.5-2.5-2.5H9.8z M55.4,41.8c-0.7,0-1.2,0.6-1.2,1.2v2.5c0,0.7,0.6,1.2,1.2,1.2
	c0.7,0,1.2-0.6,1.2-1.2v-2.5C56.6,42.4,56.1,41.8,55.4,41.8z M9.8,44.3h9.8l0,9.8H9.8V44.3z M29.5,44.3H32v1.2v1.2h-2.5V44.3z
	 M39.4,44.3h2.5v2.5h-2.5v-1.2V44.3z M13.5,46.8c-0.7,0-1.2,0.6-1.2,1.2v2.5c0,0.7,0.6,1.2,1.2,1.2H16c0.7,0,1.2-0.6,1.2-1.2V48
	c0-0.7-0.6-1.2-1.2-1.2H13.5z M25.8,51.7c-0.7,0-1.2,0.6-1.2,1.2v2.5c0,0.7,0.6,1.2,1.2,1.2s1.2-0.6,1.2-1.2v-2.5
	C27.1,52.2,26.5,51.7,25.8,51.7z M32,51.7c-0.7,0-1.2,0.6-1.2,1.2v2.5c0,0.7,0.6,1.2,1.2,1.2c0.7,0,1.2-0.6,1.2-1.2v-2.5
	C33.2,52.2,32.7,51.7,32,51.7z M38.2,51.7c-0.7,0-1.2,0.6-1.2,1.2v2.5c0,0.7,0.6,1.2,1.2,1.2s1.2-0.6,1.2-1.2v-2.5
	C39.4,52.2,38.8,51.7,38.2,51.7z M44.3,51.7c-0.7,0-1.2,0.6-1.2,1.2v2.5c0,0.7,0.6,1.2,1.2,1.2c0.7,0,1.2-0.6,1.2-1.2v-2.5
	C45.5,52.2,45,51.7,44.3,51.7z M51.7,51.7h2.5v2.5h-2.5V51.7z"/>
</svg>
