<?xml version="1.0" encoding="utf-8"?>
<svg version="1.1" id="Runr_Logo" xmlns="http://www.w3.org/2000/svg" x="0px" y="0px"
	 viewBox="0 0 200 54" style="enable-background:new 0 0 200 54;" xml:space="preserve">
<style type="text/css">
	.st0{fill:#43748D;}
	.st1{fill:#FFFFFF;}
</style>
<path id="Outline" class="st0" d="M84.3,6.1c-0.1-1.1-0.6-2.2-1.2-3.2C81.7,1.1,79.6,0,77.4,0h-12c-2.9,0-5.6,1.8-6.5,4.6l-1,2.8
	c-0.1-0.3-0.2-0.5-0.4-0.8c-1-1.8-2.3-3.4-4-4.5c-1.9-1.3-4.3-2-7-2H18.6c-2.9,0-5.5,1.8-6.5,4.5L0.4,36.5c-0.8,2.1-0.5,4.5,0.8,6.3
	c1.3,1.8,3.4,2.9,5.7,2.9h10.2c2.9,0,5.5-1.8,6.5-4.6l1.2-3.3l15,14.2c1.3,1.2,3,1.9,4.8,1.9h11c2.8,0,5.3-1.7,6.4-4.2
	c0.7-1.7,0.7-3.6,0-5.2c0.7,0.2,1.5,0.4,2.3,0.5c2.3,0.4,5.2,0.6,8.6,0.6h7.5c3.4,0,6.4-0.6,9-1.7c1.9-0.8,3.7-2,5.3-3.4
	c0.2,0.7,0.5,1.5,1,2.1c1.3,1.8,3.4,2.9,5.7,2.9h10.2c2.5,0,4.8-1.4,6-3.5c1.2,2.1,3.5,3.5,6,3.5h14c1.9,0,3.6-0.7,4.9-2
	c1.3,1.3,3,2,4.9,2h10.2c2.9,0,5.5-1.8,6.5-4.6l1.3-3.5l6.7,6.2c1.3,1.2,3,1.8,4.7,1.8h11c2.8,0,5.3-1.7,6.4-4.2
	c1.1-2.6,0.5-5.5-1.4-7.5l-3.4-3.5c0.6-0.3,1.2-0.5,1.8-0.8c2.4-1.2,4.4-2.9,6-5c1.9-2.5,2.8-5.5,2.8-8.9c0-1.2-0.1-2.6-0.3-4
	c-0.2-1.8-0.8-3.5-1.5-5.1c-1-1.9-2.3-3.5-4.1-4.7c-1.9-1.3-4.3-2-7.1-2h-27.9c-1.9,0-3.6,0.7-4.9,2c-1.3-1.3-3-2-4.9-2h-10.1
	c-2.6,0-4.9,1.4-6.1,3.6C132,1.4,129.7,0,127.1,0h-14c-1.9,0-3.6,0.7-4.9,2c-1.3-1.3-3-2-4.9-2H91.4c-2.9,0-5.5,1.8-6.5,4.6
	L84.3,6.1z"/>
<g id="Runr">
	<path id="r" class="st1" d="M193.1,15.7c0-0.9-0.1-2-0.2-3.1c-0.1-1-0.4-2-0.9-2.9c-0.4-0.8-1-1.5-1.8-2.1
		c-0.8-0.5-1.8-0.8-3.2-0.8h-27.9l-11.7,31.9h10.2l3.8-10.5l0,0l1.6-4.3l3.7-10l0.2-0.6h0.7h12.9c0.9,0,1.5,0.3,1.8,0.9
		c0.2,0.4,0.3,0.8,0.3,1.3v0.7c0,0.6-0.2,1.2-0.5,1.9c-0.4,0.9-1.2,1.4-2.3,1.4H170l-5.4,5.4l-1.2,1.3l0.6,0.5l12.9,11.9h11
		l-10.9-11.2l-1.5-1.5l2.1-0.2c1.7-0.1,3.5-0.4,5.4-0.7c1.8-0.3,3.5-0.9,5-1.7c1.5-0.8,2.7-1.8,3.7-3.1
		C192.6,19.3,193.1,17.7,193.1,15.7z"/>
	<polygon id="n" class="st1" points="139.3,6.9 132.5,25.3 131.3,28.7 130.6,25.2 127.1,6.9 113.1,6.9 101.5,38.8 111.7,38.8 
		118.4,20.4 119.6,17 120.3,20.6 123.7,38.8 137.7,38.8 149.4,6.9 	"/>
	<path id="u" class="st1" d="M94.9,29c1.1-2.2,2.2-4.8,3.2-7.7l5.3-14.5H93.3l-6.7,18.3l0,0.1l0,0.1c-0.3,0.6-0.8,1.4-1.3,2.1
		c-0.5,0.8-1.2,1.5-1.9,2.2c-0.8,0.7-1.6,1.3-2.6,1.8c-1,0.5-2.1,0.7-3.3,0.7h-3.1c-1.3,0-2.4-0.5-3.4-1.5c-1-1-1.5-2.4-1.5-4.2
		c0-0.6,0.1-1.3,0.3-2.2c0-0.2,0.1-0.4,0.2-0.8c0.1-0.3,0.3-1.1,0.7-2.3c0.4-1.2,1-3.1,1.8-5.4c0.7-2.2,1.7-5.1,3-8.8h-10l-4.8,13.5
		c-0.4,1.5-0.8,2.7-1.2,3.8c-0.4,1-0.7,2.1-0.9,3.1c-0.1,0.6-0.1,1.1-0.2,1.5c0,0.4-0.1,0.9-0.1,1.3c0,1.6,0.2,2.9,0.7,4
		c0.4,1,1.2,1.9,2.2,2.5c1.1,0.7,2.6,1.2,4.4,1.6c1.9,0.4,4.4,0.5,7.4,0.5h7.5c2.4,0,4.5-0.4,6.2-1.1c1.7-0.7,3.2-1.8,4.5-3.2
		C92.6,33,93.8,31.2,94.9,29z"/>
	<path id="R" class="st1" d="M55.6,47.1L36.4,27.7l-1.5-1.5l2.1-0.2c1.7-0.1,3.5-0.4,5.4-0.7c1.8-0.3,3.5-0.9,5-1.7
		c1.5-0.8,2.7-1.8,3.7-3.1c0.9-1.2,1.4-2.8,1.4-4.8c0-0.9-0.1-1.9-0.3-3c-0.2-1-0.5-2-1-2.9c-0.4-0.8-1.1-1.5-1.8-2.1
		c-0.7-0.5-1.8-0.8-3-0.8H18.6L6.9,38.8h10.2l3.8-10.5l0,0l1.6-4.3l3.7-10l0.2-0.6h0.7H40c0.9,0,1.5,0.3,1.8,0.9
		c0.2,0.4,0.3,0.8,0.3,1.3v0.7c0,0.6-0.2,1.2-0.5,1.9c-0.4,0.9-1.3,1.4-2.3,1.4h-9.8l-5.4,5.4l-1.2,1.2l0.6,0.5l21.2,20.1H55.6z"/>
</g>
</svg>
